<svg xmlns="http://www.w3.org/2000/svg" version="1.1" xmlns:xlink="http://www.w3.org/1999/xlink" xmlns:svgjs="http://svgjs.dev/svgjs" width="1000" height="623" viewBox="0 0 1000 623"><g transform="matrix(1,0,0,1,-0.6060606060606233,0.2522267206477409)"><svg viewBox="0 0 396 247" data-background-color="#010536" preserveAspectRatio="xMidYMid meet" height="623" width="1000" xmlns="http://www.w3.org/2000/svg" xmlns:xlink="http://www.w3.org/1999/xlink"><g id="tight-bounds" transform="matrix(1,0,0,1,0.2400000000000091,-0.09999999999999432)"><svg viewBox="0 0 395.52 247.2" height="247.2" width="395.52"><g><svg></svg></g><g><svg viewBox="0 0 395.52 247.2" height="247.2" width="395.52"><g><g><path xmlns="http://www.w3.org/2000/svg" d="M138.996 247.2h-27.506l0-11.829h27.506zM111.49 0h91.45c21.109 0 38.012 3.943 50.709 11.829l-142.159 0zM284.03 247.2h-30.364l-5.58-11.829 30.345 0z" fill="#fbfbf8" fill-rule="nonzero" stroke="none" stroke-width="1" stroke-linecap="butt" stroke-linejoin="miter" stroke-miterlimit="10" stroke-dasharray="" stroke-dashoffset="0" font-family="none" font-weight="none" font-size="none" text-anchor="none" style="mix-blend-mode: normal" data-fill-palette-color="tertiary"></path></g></g><g transform="matrix(1,0,0,1,68.98023121387283,37.08)"><svg viewBox="0 0 257.5595375722543 173.04" height="173.04" width="257.5595375722543"><g><svg viewBox="0 0 257.5595375722543 173.04" height="173.04" width="257.5595375722543"><g><svg viewBox="0 0 257.5595375722543 173.04" height="173.04" width="257.5595375722543"><g><svg viewBox="0 0 257.5595375722543 173.04" height="173.04" width="257.5595375722543"><g id="textblocktransform"><svg viewBox="0 0 257.5595375722543 173.04" height="173.04" width="257.5595375722543" id="textblock"><g><svg viewBox="0 0 257.5595375722543 173.04" height="173.04" width="257.5595375722543"><g transform="matrix(1,0,0,1,0,0)"><svg width="257.5595375722543" viewBox="4.25 -34.599998474121094 51.5 34.599998474121094" height="173.04" data-palette-color="#fbfbf8"><path d="M17.9-13.25L8.1-13.25 8.1 0 4.25 0 4.25-34.6 17.05-34.6Q22.55-34.6 25.33-32.05 28.1-29.5 28.1-24.1L28.1-24.1Q28.1-16.1 21.75-14.05L21.75-14.05 28.4 0 24.15 0 17.9-13.25ZM8.1-16.65L17.1-16.65Q24.15-16.65 24.15-23.93 24.15-31.2 17.05-31.2L17.05-31.2 8.1-31.2 8.1-16.65ZM38.9 0L35.05 0 35.05-34.6 55.75-34.6 55.75-31.2 38.9-31.2 38.9-17.7 53.15-17.7 53.15-14.3 38.9-14.3 38.9 0Z" opacity="1" transform="matrix(1,0,0,1,0,0)" fill="#fbfbf8" class="undefined-text-0" data-fill-palette-color="primary" id="text-0"></path></svg></g></svg></g></svg></g></svg></g><g></g></svg></g></svg></g></svg></g></svg></g><defs></defs></svg><rect width="395.52" height="247.2" fill="none" stroke="none" visibility="hidden"></rect></g></svg></g></svg>